<mxfile host="app.diagrams.net" modified="2024-04-17T11:47:54.240Z" agent="Mozilla/5.0 (Macintosh; Intel Mac OS X 10_15_7) AppleWebKit/605.1.15 (KHTML, like Gecko) Version/17.3.1 Safari/605.1.15" etag="6YtHXqvGYZSLCgFcyDBF" version="24.2.5" type="github">
  <diagram name="Page-1" id="2YBvvXClWsGukQMizWep">
    <mxGraphModel dx="1194" dy="877" grid="1" gridSize="10" guides="1" tooltips="1" connect="1" arrows="1" fold="1" page="1" pageScale="1" pageWidth="850" pageHeight="1100" math="0" shadow="0">
      <root>
        <mxCell id="0" />
        <mxCell id="1" parent="0" />
        <mxCell id="aM9ryv3xv72pqoxQDRHE-1" value="商家" style="shape=umlLifeline;perimeter=lifelinePerimeter;whiteSpace=wrap;html=1;container=0;dropTarget=0;collapsible=0;recursiveResize=0;outlineConnect=0;portConstraint=eastwest;newEdgeStyle={&quot;edgeStyle&quot;:&quot;elbowEdgeStyle&quot;,&quot;elbow&quot;:&quot;vertical&quot;,&quot;curved&quot;:0,&quot;rounded&quot;:0};" parent="1" vertex="1">
          <mxGeometry x="60" y="25" width="100" height="330" as="geometry" />
        </mxCell>
        <mxCell id="aM9ryv3xv72pqoxQDRHE-2" value="" style="html=1;points=[];perimeter=orthogonalPerimeter;outlineConnect=0;targetShapes=umlLifeline;portConstraint=eastwest;newEdgeStyle={&quot;edgeStyle&quot;:&quot;elbowEdgeStyle&quot;,&quot;elbow&quot;:&quot;vertical&quot;,&quot;curved&quot;:0,&quot;rounded&quot;:0};" parent="aM9ryv3xv72pqoxQDRHE-1" vertex="1">
          <mxGeometry x="45" y="70" width="10" height="260" as="geometry" />
        </mxCell>
        <mxCell id="aM9ryv3xv72pqoxQDRHE-5" value="用户" style="shape=umlLifeline;perimeter=lifelinePerimeter;whiteSpace=wrap;html=1;container=0;dropTarget=0;collapsible=0;recursiveResize=0;outlineConnect=0;portConstraint=eastwest;newEdgeStyle={&quot;edgeStyle&quot;:&quot;elbowEdgeStyle&quot;,&quot;elbow&quot;:&quot;vertical&quot;,&quot;curved&quot;:0,&quot;rounded&quot;:0};" parent="1" vertex="1">
          <mxGeometry x="260" y="30" width="100" height="330" as="geometry" />
        </mxCell>
        <mxCell id="BlfveSTpsKBFWsKW6h7x-26" value="" style="html=1;points=[];perimeter=orthogonalPerimeter;outlineConnect=0;targetShapes=umlLifeline;portConstraint=eastwest;newEdgeStyle={&quot;edgeStyle&quot;:&quot;elbowEdgeStyle&quot;,&quot;elbow&quot;:&quot;vertical&quot;,&quot;curved&quot;:0,&quot;rounded&quot;:0};" vertex="1" parent="aM9ryv3xv72pqoxQDRHE-5">
          <mxGeometry x="45" y="70" width="10" height="260" as="geometry" />
        </mxCell>
        <mxCell id="BlfveSTpsKBFWsKW6h7x-1" value="交易设备" style="shape=umlLifeline;perimeter=lifelinePerimeter;whiteSpace=wrap;html=1;container=0;dropTarget=0;collapsible=0;recursiveResize=0;outlineConnect=0;portConstraint=eastwest;newEdgeStyle={&quot;edgeStyle&quot;:&quot;elbowEdgeStyle&quot;,&quot;elbow&quot;:&quot;vertical&quot;,&quot;curved&quot;:0,&quot;rounded&quot;:0};" vertex="1" parent="1">
          <mxGeometry x="490" y="30" width="100" height="330" as="geometry" />
        </mxCell>
        <mxCell id="BlfveSTpsKBFWsKW6h7x-2" value="" style="html=1;points=[];perimeter=orthogonalPerimeter;outlineConnect=0;targetShapes=umlLifeline;portConstraint=eastwest;newEdgeStyle={&quot;edgeStyle&quot;:&quot;elbowEdgeStyle&quot;,&quot;elbow&quot;:&quot;vertical&quot;,&quot;curved&quot;:0,&quot;rounded&quot;:0};" vertex="1" parent="BlfveSTpsKBFWsKW6h7x-1">
          <mxGeometry x="45" y="70" width="10" height="260" as="geometry" />
        </mxCell>
        <mxCell id="BlfveSTpsKBFWsKW6h7x-17" value="" style="html=1;points=[];perimeter=orthogonalPerimeter;outlineConnect=0;targetShapes=umlLifeline;portConstraint=eastwest;newEdgeStyle={&quot;edgeStyle&quot;:&quot;elbowEdgeStyle&quot;,&quot;elbow&quot;:&quot;vertical&quot;,&quot;curved&quot;:0,&quot;rounded&quot;:0};" vertex="1" parent="BlfveSTpsKBFWsKW6h7x-1">
          <mxGeometry x="-185" y="200" width="10" height="50" as="geometry" />
        </mxCell>
        <mxCell id="aM9ryv3xv72pqoxQDRHE-8" value="进入第二阶段交易" style="html=1;verticalAlign=bottom;endArrow=open;dashed=1;endSize=8;edgeStyle=elbowEdgeStyle;elbow=vertical;curved=0;rounded=0;" parent="BlfveSTpsKBFWsKW6h7x-1" target="aM9ryv3xv72pqoxQDRHE-2" edge="1">
          <mxGeometry relative="1" as="geometry">
            <mxPoint x="-370" y="210" as="targetPoint" />
            <Array as="points">
              <mxPoint x="-305" y="210" />
            </Array>
            <mxPoint x="44.5" y="210" as="sourcePoint" />
          </mxGeometry>
        </mxCell>
        <mxCell id="BlfveSTpsKBFWsKW6h7x-19" value="" style="html=1;verticalAlign=bottom;startArrow=oval;endArrow=block;startSize=8;edgeStyle=elbowEdgeStyle;elbow=vertical;curved=0;rounded=0;" edge="1" parent="BlfveSTpsKBFWsKW6h7x-1">
          <mxGeometry relative="1" as="geometry">
            <mxPoint x="-180" y="240" as="sourcePoint" />
            <mxPoint x="45" y="240" as="targetPoint" />
            <Array as="points">
              <mxPoint x="-54.5" y="240" />
              <mxPoint x="54.5" y="241.55" />
            </Array>
          </mxGeometry>
        </mxCell>
        <mxCell id="BlfveSTpsKBFWsKW6h7x-20" value="选择剩余金额交易方式" style="edgeLabel;html=1;align=center;verticalAlign=middle;resizable=0;points=[];" vertex="1" connectable="0" parent="BlfveSTpsKBFWsKW6h7x-19">
          <mxGeometry x="0.061" y="2" relative="1" as="geometry">
            <mxPoint as="offset" />
          </mxGeometry>
        </mxCell>
        <mxCell id="BlfveSTpsKBFWsKW6h7x-21" value="如：个人钱包、现金支付、聚合支付" style="edgeLabel;html=1;align=center;verticalAlign=middle;resizable=0;points=[];" vertex="1" connectable="0" parent="BlfveSTpsKBFWsKW6h7x-1">
          <mxGeometry x="-65" y="260" as="geometry" />
        </mxCell>
        <mxCell id="BlfveSTpsKBFWsKW6h7x-4" value="" style="html=1;verticalAlign=bottom;startArrow=oval;endArrow=block;startSize=8;edgeStyle=elbowEdgeStyle;elbow=vertical;curved=0;rounded=0;" edge="1" parent="1" source="aM9ryv3xv72pqoxQDRHE-1">
          <mxGeometry relative="1" as="geometry">
            <mxPoint x="330" y="100" as="sourcePoint" />
            <mxPoint x="545.5" y="100" as="targetPoint" />
            <Array as="points">
              <mxPoint x="440.5" y="100" />
              <mxPoint x="549.5" y="101.55000000000001" />
            </Array>
          </mxGeometry>
        </mxCell>
        <mxCell id="BlfveSTpsKBFWsKW6h7x-5" value="商家在交易设备中输入收款金额，进入第一阶段交易" style="edgeLabel;html=1;align=center;verticalAlign=middle;resizable=0;points=[];" vertex="1" connectable="0" parent="BlfveSTpsKBFWsKW6h7x-4">
          <mxGeometry x="0.061" y="2" relative="1" as="geometry">
            <mxPoint as="offset" />
          </mxGeometry>
        </mxCell>
        <mxCell id="BlfveSTpsKBFWsKW6h7x-11" value="展示用户使用的综合钱包金额以及需要个人支付的金额" style="whiteSpace=wrap;html=1;" vertex="1" parent="1">
          <mxGeometry x="110" y="170" width="297.5" height="20" as="geometry" />
        </mxCell>
        <mxCell id="BlfveSTpsKBFWsKW6h7x-12" value="" style="edgeStyle=elbowEdgeStyle;rounded=0;orthogonalLoop=1;jettySize=auto;html=1;elbow=horizontal;curved=0;" edge="1" parent="1" target="BlfveSTpsKBFWsKW6h7x-11">
          <mxGeometry relative="1" as="geometry">
            <mxPoint x="533" y="180" as="sourcePoint" />
          </mxGeometry>
        </mxCell>
        <mxCell id="BlfveSTpsKBFWsKW6h7x-35" value="交易处理" style="edgeLabel;html=1;align=center;verticalAlign=middle;resizable=0;points=[];" vertex="1" connectable="0" parent="BlfveSTpsKBFWsKW6h7x-12">
          <mxGeometry x="-0.192" y="-1" relative="1" as="geometry">
            <mxPoint x="1" as="offset" />
          </mxGeometry>
        </mxCell>
        <mxCell id="BlfveSTpsKBFWsKW6h7x-14" value="" style="html=1;verticalAlign=bottom;startArrow=oval;endArrow=block;startSize=8;edgeStyle=elbowEdgeStyle;elbow=vertical;curved=0;rounded=0;" edge="1" parent="1">
          <mxGeometry relative="1" as="geometry">
            <mxPoint x="310" y="130" as="sourcePoint" />
            <mxPoint x="535" y="130" as="targetPoint" />
            <Array as="points">
              <mxPoint x="428" y="130" />
              <mxPoint x="537" y="131.55" />
            </Array>
          </mxGeometry>
        </mxCell>
        <mxCell id="BlfveSTpsKBFWsKW6h7x-15" value="用户使用市民卡在设备刷卡" style="edgeLabel;html=1;align=center;verticalAlign=middle;resizable=0;points=[];" vertex="1" connectable="0" parent="BlfveSTpsKBFWsKW6h7x-14">
          <mxGeometry x="0.061" y="2" relative="1" as="geometry">
            <mxPoint x="-4" y="2" as="offset" />
          </mxGeometry>
        </mxCell>
        <mxCell id="BlfveSTpsKBFWsKW6h7x-23" value="" style="html=1;verticalAlign=bottom;startArrow=oval;endArrow=block;startSize=8;edgeStyle=elbowEdgeStyle;elbow=vertical;curved=0;rounded=0;" edge="1" parent="1" source="BlfveSTpsKBFWsKW6h7x-1" target="BlfveSTpsKBFWsKW6h7x-40">
          <mxGeometry relative="1" as="geometry">
            <mxPoint x="535" y="319.5" as="sourcePoint" />
            <mxPoint x="410" y="320" as="targetPoint" />
            <Array as="points">
              <mxPoint x="447" y="319.5" />
              <mxPoint x="556" y="321.05" />
            </Array>
          </mxGeometry>
        </mxCell>
        <mxCell id="BlfveSTpsKBFWsKW6h7x-32" value="交易处理" style="edgeLabel;html=1;align=center;verticalAlign=middle;resizable=0;points=[];" vertex="1" connectable="0" parent="BlfveSTpsKBFWsKW6h7x-23">
          <mxGeometry x="0.03" y="1" relative="1" as="geometry">
            <mxPoint as="offset" />
          </mxGeometry>
        </mxCell>
        <mxCell id="BlfveSTpsKBFWsKW6h7x-40" value="展示用户使用的综合钱包金额以及个人支付的金额" style="whiteSpace=wrap;html=1;" vertex="1" parent="1">
          <mxGeometry x="110" y="310" width="297.5" height="20" as="geometry" />
        </mxCell>
        <mxCell id="BlfveSTpsKBFWsKW6h7x-43" value="交易完成" style="html=1;verticalAlign=bottom;endArrow=open;dashed=1;endSize=8;edgeStyle=elbowEdgeStyle;elbow=vertical;curved=0;rounded=0;" edge="1" parent="1" target="aM9ryv3xv72pqoxQDRHE-2">
          <mxGeometry relative="1" as="geometry">
            <mxPoint x="90" y="359" as="targetPoint" />
            <Array as="points">
              <mxPoint x="185" y="359" />
            </Array>
            <mxPoint x="534.5" y="359" as="sourcePoint" />
          </mxGeometry>
        </mxCell>
      </root>
    </mxGraphModel>
  </diagram>
</mxfile>
